<svg width="54" height="54" viewBox="0 0 54 54" fill="none" xmlns="http://www.w3.org/2000/svg">
<path d="M10.775 13.186C9.39359 13.186 8.26335 12.0558 8.26335 10.6744C8.26335 9.29302 9.36847 8.16279 10.775 8.16279H10.8001C12.1815 8.16279 13.3117 9.29302 13.3117 10.6744C13.3117 12.0558 12.1815 13.186 10.775 13.186Z" fill="url(#paint0_linear_1_85)"/>
<path d="M43.4261 45.8372C42.0448 45.8372 40.9145 44.707 40.9145 43.3256C40.9145 41.9442 42.0196 40.814 43.4261 40.814H43.4513C44.8327 40.814 45.9629 41.9442 45.9629 43.3256C45.9629 44.707 44.8327 45.8372 43.4261 45.8372Z" fill="url(#paint1_linear_1_85)"/>
<path d="M10.6744 21.3488C4.79721 21.3488 0 16.5516 0 10.6744C0 4.79721 4.79721 0 10.6744 0C16.5516 0 21.3488 4.79721 21.3488 10.6744C21.3488 16.5516 16.5767 21.3488 10.6744 21.3488ZM10.6744 3.76744C6.85674 3.76744 3.76744 6.85674 3.76744 10.6744C3.76744 14.4921 6.85674 17.5814 10.6744 17.5814C14.4921 17.5814 17.5814 14.4921 17.5814 10.6744C17.5814 6.85674 14.4921 3.76744 10.6744 3.76744Z" fill="url(#paint2_linear_1_85)"/>
<path d="M47.093 54H39.5581C35.7405 54 32.6512 50.9107 32.6512 47.093V39.5581C32.6512 35.7405 35.7405 32.6512 39.5581 32.6512H47.093C50.9107 32.6512 54 35.7405 54 39.5581V47.093C54 50.9107 50.9107 54 47.093 54ZM39.5581 36.4186C37.8251 36.4186 36.4186 37.8251 36.4186 39.5581V47.093C36.4186 48.826 37.8251 50.2326 39.5581 50.2326H47.093C48.826 50.2326 50.2326 48.826 50.2326 47.093V39.5581C50.2326 37.8251 48.826 36.4186 47.093 36.4186H39.5581Z" fill="url(#paint3_linear_1_85)"/>
<path d="M27.0753 46.4651H20.3441C17.4306 46.4651 14.8939 44.707 13.8892 41.9944C12.8595 39.2819 13.6129 36.293 15.7981 34.3591L35.866 16.8028C37.0716 15.7479 37.0967 14.3163 36.745 13.3367C36.3683 12.3572 35.4139 11.3023 33.8064 11.3023H27.0753C26.0455 11.3023 25.1916 10.4484 25.1916 9.4186C25.1916 8.38884 26.0455 7.53488 27.0753 7.53488H33.8064C36.7199 7.53488 39.2567 9.29302 40.2613 12.0056C41.2911 14.7181 40.5376 17.707 38.3525 19.6409L18.2846 37.1972C17.079 38.2521 17.0539 39.6837 17.4055 40.6633C17.7822 41.6428 18.7367 42.6977 20.3441 42.6977H27.0753C28.105 42.6977 28.959 43.5516 28.959 44.5814C28.959 45.6112 28.105 46.4651 27.0753 46.4651Z" fill="url(#paint4_linear_1_85)"/>
<defs>
<linearGradient id="paint0_linear_1_85" x1="27" y1="8.35714" x2="62.8263" y2="50.6555" gradientUnits="userSpaceOnUse">
<stop stop-color="#FFC367"/>
<stop offset="1" stop-color="#D78200"/>
</linearGradient>
<linearGradient id="paint1_linear_1_85" x1="27" y1="8.35714" x2="62.8263" y2="50.6555" gradientUnits="userSpaceOnUse">
<stop stop-color="#FFC367"/>
<stop offset="1" stop-color="#D78200"/>
</linearGradient>
<linearGradient id="paint2_linear_1_85" x1="27" y1="8.35714" x2="62.8263" y2="50.6555" gradientUnits="userSpaceOnUse">
<stop stop-color="#FFC367"/>
<stop offset="1" stop-color="#D78200"/>
</linearGradient>
<linearGradient id="paint3_linear_1_85" x1="27" y1="8.35714" x2="62.8263" y2="50.6555" gradientUnits="userSpaceOnUse">
<stop stop-color="#FFC367"/>
<stop offset="1" stop-color="#D78200"/>
</linearGradient>
<linearGradient id="paint4_linear_1_85" x1="27" y1="8.35714" x2="62.8263" y2="50.6555" gradientUnits="userSpaceOnUse">
<stop stop-color="#FFC367"/>
<stop offset="1" stop-color="#D78200"/>
</linearGradient>
</defs>
</svg>
