<svg width="51" height="44" viewBox="0 0 51 44" fill="none" xmlns="http://www.w3.org/2000/svg">
<path d="M37.3605 44H13.6395C4.98139 44 0 39.0054 0 30.3243V13.6757C0 4.99459 4.98139 0 13.6395 0H37.3605C46.0186 0 51 4.99459 51 13.6757V30.3243C51 39.0054 46.0186 44 37.3605 44ZM13.6395 3.56757C6.85535 3.56757 3.55814 6.87351 3.55814 13.6757V30.3243C3.55814 37.1265 6.85535 40.4324 13.6395 40.4324H37.3605C44.1446 40.4324 47.4419 37.1265 47.4419 30.3243V13.6757C47.4419 6.87351 44.1446 3.56757 37.3605 3.56757H13.6395Z" fill="url(#paint0_linear_1_105)"/>
<path d="M25.5 30.9189C20.5898 30.9189 16.6047 26.9232 16.6047 22C16.6047 17.0768 20.5898 13.0811 25.5 13.0811C30.4102 13.0811 34.3953 17.0768 34.3953 22C34.3953 26.9232 30.4102 30.9189 25.5 30.9189ZM25.5 16.6486C22.5586 16.6486 20.1628 19.0508 20.1628 22C20.1628 24.9492 22.5586 27.3514 25.5 27.3514C28.4414 27.3514 30.8372 24.9492 30.8372 22C30.8372 19.0508 28.4414 16.6486 25.5 16.6486Z" fill="url(#paint1_linear_1_105)"/>
<path d="M4.15116 16.6486H1.77907C0.806512 16.6486 0 15.84 0 14.8649C0 13.8897 0.806512 13.0811 1.77907 13.0811H4.15116C10.2712 13.0811 11.8605 11.4876 11.8605 5.35135V2.97297C11.8605 1.99784 12.667 1.18919 13.6395 1.18919C14.6121 1.18919 15.4186 1.99784 15.4186 2.97297V5.35135C15.4186 13.4854 12.2637 16.6486 4.15116 16.6486Z" fill="url(#paint2_linear_1_105)"/>
<path d="M49.2209 16.6486H46.8488C38.7363 16.6486 35.5814 13.4854 35.5814 5.35135V2.97297C35.5814 1.99784 36.3879 1.18919 37.3605 1.18919C38.333 1.18919 39.1395 1.99784 39.1395 2.97297V5.35135C39.1395 11.4876 40.7288 13.0811 46.8488 13.0811H49.2209C50.1935 13.0811 51 13.8897 51 14.8649C51 15.84 50.1935 16.6486 49.2209 16.6486Z" fill="url(#paint3_linear_1_105)"/>
<path d="M13.6395 42.8108C12.667 42.8108 11.8605 42.0022 11.8605 41.027V38.6486C11.8605 32.5124 10.2712 30.9189 4.15116 30.9189H1.77907C0.806512 30.9189 0 30.1103 0 29.1351C0 28.16 0.806512 27.3514 1.77907 27.3514H4.15116C12.2637 27.3514 15.4186 30.5146 15.4186 38.6486V41.027C15.4186 42.0022 14.6121 42.8108 13.6395 42.8108Z" fill="url(#paint4_linear_1_105)"/>
<path d="M37.3605 42.8108C36.3879 42.8108 35.5814 42.0022 35.5814 41.027V38.6486C35.5814 30.5146 38.7363 27.3514 46.8488 27.3514H49.2209C50.1935 27.3514 51 28.16 51 29.1351C51 30.1103 50.1935 30.9189 49.2209 30.9189H46.8488C40.7288 30.9189 39.1395 32.5124 39.1395 38.6486V41.027C39.1395 42.0022 38.333 42.8108 37.3605 42.8108Z" fill="url(#paint5_linear_1_105)"/>
<defs>
<linearGradient id="paint0_linear_1_105" x1="25.5" y1="6.80952" x2="53.6964" y2="45.3959" gradientUnits="userSpaceOnUse">
<stop stop-color="#FFC367"/>
<stop offset="1" stop-color="#D78200"/>
</linearGradient>
<linearGradient id="paint1_linear_1_105" x1="25.5" y1="6.80952" x2="53.6964" y2="45.3959" gradientUnits="userSpaceOnUse">
<stop stop-color="#FFC367"/>
<stop offset="1" stop-color="#D78200"/>
</linearGradient>
<linearGradient id="paint2_linear_1_105" x1="25.5" y1="6.80952" x2="53.6964" y2="45.3959" gradientUnits="userSpaceOnUse">
<stop stop-color="#FFC367"/>
<stop offset="1" stop-color="#D78200"/>
</linearGradient>
<linearGradient id="paint3_linear_1_105" x1="25.5" y1="6.80952" x2="53.6964" y2="45.3959" gradientUnits="userSpaceOnUse">
<stop stop-color="#FFC367"/>
<stop offset="1" stop-color="#D78200"/>
</linearGradient>
<linearGradient id="paint4_linear_1_105" x1="25.5" y1="6.80952" x2="53.6964" y2="45.3959" gradientUnits="userSpaceOnUse">
<stop stop-color="#FFC367"/>
<stop offset="1" stop-color="#D78200"/>
</linearGradient>
<linearGradient id="paint5_linear_1_105" x1="25.5" y1="6.80952" x2="53.6964" y2="45.3959" gradientUnits="userSpaceOnUse">
<stop stop-color="#FFC367"/>
<stop offset="1" stop-color="#D78200"/>
</linearGradient>
</defs>
</svg>
