<svg width="54" height="54" viewBox="0 0 54 54" fill="none" xmlns="http://www.w3.org/2000/svg">
<path d="M29.6169 38.0656H24.9314C21.6166 38.0656 18.9 35.2694 18.9 31.8241C18.9 30.8005 19.7474 29.9517 20.7692 29.9517C21.7911 29.9517 22.6385 30.8005 22.6385 31.8241C22.6385 33.1972 23.6603 34.3207 24.9314 34.3207H29.6169C30.5889 34.3207 31.3615 33.4469 31.3615 32.3734C31.3615 31.0252 30.9877 30.8255 30.1403 30.5259L22.6385 27.9045C21.0434 27.3552 18.9 26.1819 18.9 22.5119C18.9 19.3911 21.3674 16.8197 24.3831 16.8197H29.0686C32.3834 16.8197 35.1 19.6158 35.1 23.0611C35.1 24.0847 34.2526 24.9336 33.2308 24.9336C32.2089 24.9336 31.3615 24.0847 31.3615 23.0611C31.3615 21.688 30.3397 20.5645 29.0686 20.5645H24.3831C23.4111 20.5645 22.6385 21.4383 22.6385 22.5119C22.6385 23.86 23.0123 24.0597 23.8597 24.3593L31.3615 26.9807C32.9566 27.53 35.1 28.7034 35.1 32.3734C35.1 35.5191 32.6326 38.0656 29.6169 38.0656Z" fill="url(#paint0_linear_1_90)"/>
<path d="M27 39.8361C26.016 39.8361 25.2 39.0048 25.2 38.0023V15.9977C25.2 14.9952 26.016 14.1639 27 14.1639C27.984 14.1639 28.8 14.9952 28.8 15.9977V38.0023C28.8 39.0048 27.984 39.8361 27 39.8361Z" fill="url(#paint1_linear_1_90)"/>
<path d="M27 54C12.106 54 0 41.894 0 27C0 12.106 12.106 0 27 0C28.0298 0 28.8837 0.853953 28.8837 1.88372C28.8837 2.91349 28.0298 3.76744 27 3.76744C14.1907 3.76744 3.76744 14.1907 3.76744 27C3.76744 39.8093 14.1907 50.2326 27 50.2326C39.8093 50.2326 50.2326 39.8093 50.2326 27C50.2326 25.9702 51.0865 25.1163 52.1163 25.1163C53.146 25.1163 54 25.9702 54 27C54 41.894 41.8939 54 27 54Z" fill="url(#paint2_linear_1_90)"/>
<path d="M50.2364 16.8197H39.7636C38.6902 16.8197 37.8 15.9441 37.8 14.8882V4.58718C37.8 3.53133 38.6902 2.65574 39.7636 2.65574C40.8371 2.65574 41.7273 3.53133 41.7273 4.58718V12.9568H50.2364C51.3098 12.9568 52.2 13.8324 52.2 14.8882C52.2 15.9441 51.3098 16.8197 50.2364 16.8197Z" fill="url(#paint3_linear_1_90)"/>
<path d="M39.6644 16.8197C39.1905 16.8197 38.7166 16.6385 38.3425 16.2502C37.6192 15.4995 37.6192 14.2569 38.3425 13.5062L50.8136 0.563029C51.537 -0.187676 52.7342 -0.187676 53.4575 0.563029C54.1808 1.31373 54.1808 2.55627 53.4575 3.30698L40.9864 16.2502C40.6122 16.6385 40.1383 16.8197 39.6644 16.8197Z" fill="url(#paint4_linear_1_90)"/>
<defs>
<linearGradient id="paint0_linear_1_90" x1="27" y1="8.35714" x2="62.8263" y2="50.6555" gradientUnits="userSpaceOnUse">
<stop stop-color="#FFC367"/>
<stop offset="1" stop-color="#D78200"/>
</linearGradient>
<linearGradient id="paint1_linear_1_90" x1="27" y1="8.35714" x2="62.8263" y2="50.6555" gradientUnits="userSpaceOnUse">
<stop stop-color="#FFC367"/>
<stop offset="1" stop-color="#D78200"/>
</linearGradient>
<linearGradient id="paint2_linear_1_90" x1="27" y1="8.35714" x2="62.8263" y2="50.6555" gradientUnits="userSpaceOnUse">
<stop stop-color="#FFC367"/>
<stop offset="1" stop-color="#D78200"/>
</linearGradient>
<linearGradient id="paint3_linear_1_90" x1="27" y1="8.35714" x2="62.8263" y2="50.6555" gradientUnits="userSpaceOnUse">
<stop stop-color="#FFC367"/>
<stop offset="1" stop-color="#D78200"/>
</linearGradient>
<linearGradient id="paint4_linear_1_90" x1="27" y1="8.35714" x2="62.8263" y2="50.6555" gradientUnits="userSpaceOnUse">
<stop stop-color="#FFC367"/>
<stop offset="1" stop-color="#D78200"/>
</linearGradient>
</defs>
</svg>
