<svg width="54" height="54" viewBox="0 0 54 54" fill="none" xmlns="http://www.w3.org/2000/svg">
<path d="M23.9429 34.9619C23.4407 34.9619 22.9636 34.761 22.6121 34.4094L16.5354 28.3312C15.8072 27.6029 15.8072 26.3973 16.5354 25.6689C17.2636 24.9405 18.4689 24.9405 19.1971 25.6689L23.9429 30.4159L34.7404 19.6159C35.4686 18.8875 36.6739 18.8875 37.4021 19.6159C38.1303 20.3443 38.1303 21.5498 37.4021 22.2782L25.2738 34.4094C24.9222 34.761 24.4451 34.9619 23.9429 34.9619Z" fill="url(#paint0_linear_1_95)"/>
<path d="M26.9812 54C25.3992 54 23.8173 53.4726 22.5868 52.4177L18.6194 49.0019C18.2176 48.6502 17.2132 48.2986 16.6859 48.2986H12.3669C8.65055 48.2986 5.63729 45.2846 5.63729 41.5674V37.2726C5.63729 36.7451 5.28575 35.7656 4.9342 35.3637L1.54429 31.3702C-0.514764 28.934 -0.514764 25.0912 1.54429 22.6549L4.9342 18.6614C5.28575 18.2595 5.63729 17.28 5.63729 16.7526V12.4326C5.63729 8.71535 8.65055 5.7014 12.3669 5.7014H16.711C17.2383 5.7014 18.2427 5.32465 18.6445 4.99814L22.612 1.58233C25.0728 -0.527442 28.9147 -0.527442 31.3755 1.58233L35.3429 4.99814C35.7447 5.34977 36.7491 5.7014 37.2765 5.7014H41.5452C45.2616 5.7014 48.2748 8.71535 48.2748 12.4326V16.7023C48.2748 17.2298 48.6515 18.2344 49.003 18.6363L52.418 22.6047C54.5273 25.066 54.5273 28.9088 52.418 31.3702L49.003 35.3386C48.6515 35.7405 48.2748 36.7451 48.2748 37.2726V41.5423C48.2748 45.2595 45.2616 48.2735 41.5452 48.2735H37.2765C36.7491 48.2735 35.7447 48.6502 35.3429 48.9767L31.3755 52.3926C30.1451 53.4726 28.5631 54 26.9812 54ZM12.3669 9.46884C10.7347 9.46884 9.40386 10.8 9.40386 12.4326V16.7274C9.40386 18.1591 8.72588 19.9926 7.79679 21.0726L4.40688 25.066C3.52802 26.0958 3.52802 27.8791 4.40688 28.9088L7.79679 32.9023C8.72588 34.0074 9.40386 35.8158 9.40386 37.2474V41.5423C9.40386 43.1749 10.7347 44.506 12.3669 44.506H16.711C18.1674 44.506 20.0005 45.1842 21.1053 46.1386L25.0728 49.5544C26.1023 50.4335 27.9103 50.4335 28.9398 49.5544L32.9072 46.1386C34.0121 45.2093 35.8452 44.506 37.3016 44.506H41.5703C43.2025 44.506 44.5334 43.1749 44.5334 41.5423V37.2726C44.5334 35.8158 45.2113 33.9823 46.1655 32.8772L49.5806 28.9088C50.4594 27.8791 50.4594 26.0707 49.5806 25.0409L46.1655 21.0726C45.2113 19.9674 44.5334 18.134 44.5334 16.6772V12.4326C44.5334 10.8 43.2025 9.46884 41.5703 9.46884H37.3016C35.8452 9.46884 34.0121 8.7907 32.9072 7.83628L28.9398 4.42046C27.9103 3.5414 26.1023 3.5414 25.0728 4.42046L21.1053 7.8614C20.0005 8.7907 18.1423 9.46884 16.711 9.46884H12.3669Z" fill="url(#paint1_linear_1_95)"/>
<defs>
<linearGradient id="paint0_linear_1_95" x1="27" y1="8.35714" x2="62.8263" y2="50.6555" gradientUnits="userSpaceOnUse">
<stop stop-color="#FFC367"/>
<stop offset="1" stop-color="#D78200"/>
</linearGradient>
<linearGradient id="paint1_linear_1_95" x1="27" y1="8.35714" x2="62.8263" y2="50.6555" gradientUnits="userSpaceOnUse">
<stop stop-color="#FFC367"/>
<stop offset="1" stop-color="#D78200"/>
</linearGradient>
</defs>
</svg>
