<svg width="47" height="49" viewBox="0 0 47 49" fill="none" xmlns="http://www.w3.org/2000/svg">
<path d="M29.0761 34.0491H17.9016C16.9853 34.0491 16.2254 33.2742 16.2254 32.3398C16.2254 31.4053 16.9853 30.6305 17.9016 30.6305H29.0761C29.9924 30.6305 30.7523 31.4053 30.7523 32.3398C30.7523 33.2742 29.9924 34.0491 29.0761 34.0491Z" fill="url(#paint0_linear_1_100)"/>
<path d="M23.4888 39.8836C22.5725 39.8836 21.8127 39.1087 21.8127 38.1743V26.779C21.8127 25.8446 22.5725 25.0697 23.4888 25.0697C24.4051 25.0697 25.165 25.8446 25.165 26.779V38.1743C25.165 39.1087 24.4051 39.8836 23.4888 39.8836Z" fill="url(#paint1_linear_1_100)"/>
<path d="M8.29137 20.9899C7.86674 20.9899 7.44211 20.8076 7.10687 20.4885C6.63754 20.0099 6.4811 19.2578 6.74929 18.6197L10.9062 8.50062C10.9956 8.29551 11.0403 8.15876 11.1073 8.04481C14.415 0.273207 18.639 -1.61841 26.1035 1.29879C26.5282 1.45832 26.8634 1.80018 27.0422 2.2332C27.221 2.66622 27.221 3.14483 27.0422 3.57785L20.4939 19.0755C20.2257 19.6908 19.6223 20.101 18.9519 20.101H12.5824C11.3085 20.101 10.1016 20.3517 8.93949 20.8531C8.73835 20.9443 8.51486 20.9899 8.29137 20.9899ZM20.3822 3.41831C17.6109 3.41831 15.9124 5.26435 14.1468 9.45783C14.1245 9.5262 14.0798 9.59457 14.0574 9.66294L11.1297 16.7508C11.6214 16.7052 12.0907 16.6825 12.5824 16.6825H17.8344L23.2205 3.91971C22.1701 3.57785 21.2315 3.41831 20.3822 3.41831Z" fill="url(#paint2_linear_1_100)"/>
<path d="M37.5463 20.5572C37.3899 20.5572 37.2111 20.5344 37.0546 20.4888C36.2277 20.2381 35.3114 20.1014 34.3728 20.1014L18.9519 20.101C18.3931 20.101 17.8568 19.8051 17.544 19.3265C17.2534 18.8479 17.1864 18.2326 17.4099 17.7084L23.8911 2.37028C24.2263 1.54982 25.2097 1.00284 26.0366 1.27633C26.3048 1.36749 26.5506 1.48145 26.8188 1.5954L32.0932 3.85167C35.1773 5.15074 37.2334 6.51817 38.5744 8.1591C38.8426 8.47817 39.0661 8.82003 39.2672 9.16189C39.513 9.54933 39.7365 10.0279 39.893 10.5065C39.96 10.6661 40.0718 10.9623 40.1388 11.2814C40.7646 13.4237 40.4517 16.0902 39.1108 19.5088C38.8426 20.147 38.2168 20.5572 37.5463 20.5572ZM21.4997 16.6828H34.3951C35.1103 16.6828 35.8031 16.7512 36.4959 16.8651C37.1217 14.8823 37.2558 13.3554 36.8982 12.1247C36.8535 11.9196 36.8088 11.8284 36.7865 11.7372C36.6524 11.3726 36.563 11.1675 36.4512 10.9851C36.2948 10.7344 36.183 10.5293 36.0042 10.3242C35.0432 9.1391 33.3447 8.04515 30.8193 6.99678L26.3942 5.10515L21.4997 16.6828Z" fill="url(#paint3_linear_1_100)"/>
<path d="M32.205 49H14.7727C14.1469 49 13.5659 48.9544 12.9848 48.886C5.1403 48.3391 0.670492 43.7809 0.134116 35.6903C0.0670688 35.1889 0.0223708 34.5735 0.0223708 33.9582V29.514C0.0223708 24.3861 3.01714 19.7596 7.64338 17.7085C9.20782 17.0248 10.884 16.6829 12.6049 16.6829H34.4175C35.6914 16.6829 36.9206 16.8652 38.0604 17.2299C43.3124 18.848 47 23.9075 47 29.514V33.9582C47 34.4596 46.9776 34.9382 46.9553 35.394C46.4636 44.3051 41.368 49 32.205 49ZM12.5824 20.101C11.3085 20.101 10.1016 20.3517 8.93949 20.8531C5.54244 22.3573 3.35237 25.7536 3.35237 29.514V33.9582C3.35237 34.4368 3.39707 34.9154 3.44177 35.3712C3.8664 41.8665 6.99526 45.0572 13.2753 45.4902C13.8341 45.5586 14.281 45.6042 14.7504 45.6042H32.1826C39.5578 45.6042 43.1783 42.2996 43.5359 35.2345C43.5583 34.8242 43.5806 34.414 43.5806 33.9582V29.514C43.5806 25.3889 40.8764 21.6968 37.0323 20.4889C36.2054 20.2382 35.2891 20.1015 34.3505 20.1015L12.5824 20.101Z" fill="url(#paint4_linear_1_100)"/>
<path d="M1.67618 31.2233C0.759866 31.2233 0 30.4484 0 29.514V22.8363C0 15.6573 4.98383 9.45821 11.8673 8.09078C12.4708 7.97682 13.0965 8.20473 13.4988 8.68333C13.8787 9.16193 13.9905 9.84565 13.7446 10.4154L9.83357 19.9419C9.65477 20.3521 9.34189 20.6712 8.96196 20.8535C5.56491 22.3577 3.3747 25.7535 3.3747 29.514C3.35235 30.4484 2.61483 31.2233 1.67618 31.2233ZM9.18544 12.6945C6.32477 14.3354 4.24631 17.207 3.59819 20.5572C4.58155 19.5317 5.72135 18.6656 7.01759 18.0275L9.18544 12.6945Z" fill="url(#paint5_linear_1_100)"/>
<path d="M45.3012 31.2232C44.3849 31.2232 43.6251 30.4483 43.6251 29.5139C43.6251 25.3888 40.9208 21.6967 37.0768 20.4888C36.6298 20.3521 36.2499 20.033 36.0488 19.6C35.8476 19.167 35.8253 18.6656 36.0041 18.2325C37.0545 15.566 37.3228 13.6288 36.8982 12.1247C36.8535 11.9196 36.8088 11.8284 36.7865 11.7372C36.4959 11.0763 36.6522 10.3014 37.1662 9.80002C37.6802 9.29862 38.4624 9.18467 39.0882 9.52653C43.9603 12.1247 46.9774 17.2298 46.9774 22.8363V29.5139C46.9774 30.4483 46.2176 31.2232 45.3012 31.2232ZM39.6916 17.8679C41.0996 18.5288 42.3512 19.4632 43.4016 20.58C42.977 18.3465 41.9265 16.3181 40.3845 14.7228C40.2727 15.68 40.0492 16.7284 39.6916 17.8679Z" fill="url(#paint6_linear_1_100)"/>
<defs>
<linearGradient id="paint0_linear_1_100" x1="23.5" y1="7.58333" x2="56.205" y2="44.6205" gradientUnits="userSpaceOnUse">
<stop stop-color="#FFC367"/>
<stop offset="1" stop-color="#D78200"/>
</linearGradient>
<linearGradient id="paint1_linear_1_100" x1="23.5" y1="7.58333" x2="56.205" y2="44.6205" gradientUnits="userSpaceOnUse">
<stop stop-color="#FFC367"/>
<stop offset="1" stop-color="#D78200"/>
</linearGradient>
<linearGradient id="paint2_linear_1_100" x1="23.5" y1="7.58333" x2="56.205" y2="44.6205" gradientUnits="userSpaceOnUse">
<stop stop-color="#FFC367"/>
<stop offset="1" stop-color="#D78200"/>
</linearGradient>
<linearGradient id="paint3_linear_1_100" x1="23.5" y1="7.58333" x2="56.205" y2="44.6205" gradientUnits="userSpaceOnUse">
<stop stop-color="#FFC367"/>
<stop offset="1" stop-color="#D78200"/>
</linearGradient>
<linearGradient id="paint4_linear_1_100" x1="23.5" y1="7.58333" x2="56.205" y2="44.6205" gradientUnits="userSpaceOnUse">
<stop stop-color="#FFC367"/>
<stop offset="1" stop-color="#D78200"/>
</linearGradient>
<linearGradient id="paint5_linear_1_100" x1="23.5" y1="7.58333" x2="56.205" y2="44.6205" gradientUnits="userSpaceOnUse">
<stop stop-color="#FFC367"/>
<stop offset="1" stop-color="#D78200"/>
</linearGradient>
<linearGradient id="paint6_linear_1_100" x1="23.5" y1="7.58333" x2="56.205" y2="44.6205" gradientUnits="userSpaceOnUse">
<stop stop-color="#FFC367"/>
<stop offset="1" stop-color="#D78200"/>
</linearGradient>
</defs>
</svg>
