<svg width="221" height="62" viewBox="0 0 221 62" fill="none" xmlns="http://www.w3.org/2000/svg">
<path d="M0.646429 38L12.9036 10.5H19.1893L31.4857 38H24.8071L14.75 13.7214H17.2643L7.16786 38H0.646429ZM6.775 32.1071L8.46429 27.275H22.6071L24.3357 32.1071H6.775ZM34.3388 38V10.5H39.6031L51.3103 29.9071H48.521L60.0317 10.5H65.2567L65.3353 38H59.3638L59.3246 19.6536H60.4246L51.2317 35.0929H48.3638L38.9746 19.6536H40.3103V38H34.3388ZM70.0919 38V33.875L87.1026 13.3679L87.8883 15.6857H70.4062V10.5H93.5455V14.625L76.574 35.1321L75.7883 32.8143H94.1348V38H70.0919Z" fill="#FE9A00"/>
<path d="M117.142 51.5666C114.968 51.5666 112.951 51.2131 111.092 50.5059C109.258 49.7988 107.661 48.8035 106.299 47.5202C104.963 46.2369 103.915 44.7309 103.156 43.0024C102.423 41.2738 102.056 39.3881 102.056 37.3452C102.056 35.3024 102.423 33.4166 103.156 31.6881C103.915 29.9595 104.976 28.4535 106.338 27.1702C107.7 25.8869 109.298 24.8916 111.131 24.1845C112.964 23.4774 114.955 23.1238 117.102 23.1238C119.276 23.1238 121.267 23.4774 123.074 24.1845C124.907 24.8916 126.492 25.8869 127.827 27.1702C129.189 28.4535 130.25 29.9595 131.01 31.6881C131.769 33.3905 132.149 35.2762 132.149 37.3452C132.149 39.3881 131.769 41.2869 131.01 43.0416C130.25 44.7702 129.189 46.2762 127.827 47.5595C126.492 48.8166 124.907 49.7988 123.074 50.5059C121.267 51.2131 119.289 51.5666 117.142 51.5666ZM117.102 46.1452C118.333 46.1452 119.46 45.9357 120.481 45.5166C121.529 45.0976 122.445 44.4952 123.231 43.7095C124.017 42.9238 124.619 41.994 125.038 40.9202C125.483 39.8464 125.706 38.6547 125.706 37.3452C125.706 36.0357 125.483 34.844 125.038 33.7702C124.619 32.6964 124.017 31.7666 123.231 30.9809C122.471 30.1952 121.568 29.5928 120.52 29.1738C119.473 28.7547 118.333 28.5452 117.102 28.5452C115.871 28.5452 114.732 28.7547 113.685 29.1738C112.663 29.5928 111.76 30.1952 110.974 30.9809C110.188 31.7666 109.573 32.6964 109.127 33.7702C108.708 34.844 108.499 36.0357 108.499 37.3452C108.499 38.6285 108.708 39.8202 109.127 40.9202C109.573 41.994 110.175 42.9238 110.935 43.7095C111.72 44.4952 112.637 45.0976 113.685 45.5166C114.732 45.9357 115.871 46.1452 117.102 46.1452ZM136.932 51.0952V23.5952H148.835C151.297 23.5952 153.419 24.0012 155.2 24.8131C156.981 25.5988 158.356 26.7381 159.325 28.2309C160.294 29.7238 160.778 31.5047 160.778 33.5738C160.778 35.6166 160.294 37.3845 159.325 38.8774C158.356 40.3702 156.981 41.5226 155.2 42.3345C153.419 43.1202 151.297 43.5131 148.835 43.5131H140.468L143.296 40.6452V51.0952H136.932ZM143.296 41.3524L140.468 38.3274H148.482C150.446 38.3274 151.913 37.9083 152.882 37.0702C153.851 36.2321 154.335 35.0666 154.335 33.5738C154.335 32.0547 153.851 30.8762 152.882 30.0381C151.913 29.2 150.446 28.7809 148.482 28.7809H140.468L143.296 25.7559V41.3524ZM171.175 34.6738H184.415V39.6238H171.175V34.6738ZM171.647 45.9881H186.615V51.0952H165.322V23.5952H186.104V28.7024H171.647V45.9881ZM191.679 51.0952V23.5952H196.943L213.168 43.3952H210.614V23.5952H216.9V51.0952H211.675L195.411 31.2952H197.964V51.0952H191.679Z" fill="#FE9A00"/>
</svg>
