<svg width="176" height="49" viewBox="0 0 176 49" fill="none" xmlns="http://www.w3.org/2000/svg">
<path d="M0.242787 30L9.98469 8.14316H14.9805L24.7537 30H19.4456L11.4522 10.7035H13.4506L5.42598 30H0.242787ZM5.11374 25.3164L6.45637 21.4758H17.697L19.0709 25.3164H5.11374ZM27.0213 30V8.14316H31.2053L40.5101 23.5678H38.2932L47.4418 8.14316H51.5946L51.6571 30H46.911L46.8798 15.4184H47.7541L40.4477 27.6894H38.1683L30.7058 15.4184H31.7674V30H27.0213ZM55.4376 30V26.7215L68.9576 10.4225L69.5821 12.2647H55.6874V8.14316H74.0784V11.4217L60.5896 27.7206L59.9651 25.8784H74.5468V30H55.4376Z" fill="#414141"/>
<path d="M92.8325 40.7826C91.1048 40.7826 89.502 40.5016 88.024 39.9396C86.5669 39.3776 85.2971 38.5866 84.2147 37.5666C83.1531 36.5466 82.3204 35.3497 81.7168 33.9758C81.1339 32.6019 80.8425 31.1032 80.8425 29.4795C80.8425 27.8559 81.1339 26.3571 81.7168 24.9833C82.3204 23.6094 83.1635 22.4125 84.2459 21.3925C85.3283 20.3725 86.5981 19.5815 88.0552 19.0195C89.5124 18.4575 91.0944 18.1764 92.8013 18.1764C94.529 18.1764 96.1111 18.4575 97.5474 19.0195C99.0045 19.5815 100.264 20.3725 101.325 21.3925C102.408 22.4125 103.251 23.6094 103.855 24.9833C104.458 26.3363 104.76 27.8351 104.76 29.4795C104.76 31.1032 104.458 32.6124 103.855 34.007C103.251 35.3809 102.408 36.5778 101.325 37.5978C100.264 38.597 99.0045 39.3776 97.5474 39.9396C96.1111 40.5016 94.5394 40.7826 92.8325 40.7826ZM92.8013 36.4737C93.7797 36.4737 94.6747 36.3072 95.4866 35.9741C96.3192 35.6411 97.0478 35.1623 97.6723 34.5378C98.2967 33.9134 98.7755 33.1744 99.1086 32.3209C99.4624 31.4675 99.6394 30.5203 99.6394 29.4795C99.6394 28.4387 99.4624 27.4916 99.1086 26.6382C98.7755 25.7847 98.2967 25.0457 97.6723 24.4212C97.0686 23.7968 96.3504 23.318 95.5178 22.9849C94.6852 22.6519 93.7797 22.4854 92.8013 22.4854C91.823 22.4854 90.9175 22.6519 90.0848 22.9849C89.273 23.318 88.5548 23.7968 87.9304 24.4212C87.3059 25.0457 86.8167 25.7847 86.4628 26.6382C86.1298 27.4916 85.9632 28.4387 85.9632 29.4795C85.9632 30.4995 86.1298 31.4467 86.4628 32.3209C86.8167 33.1744 87.2955 33.9134 87.8991 34.5378C88.5236 35.1623 89.2522 35.6411 90.0848 35.9741C90.9175 36.3072 91.823 36.4737 92.8013 36.4737ZM108.562 40.408V18.5511H118.023C119.979 18.5511 121.665 18.8738 123.081 19.5191C124.496 20.1435 125.589 21.049 126.359 22.2356C127.13 23.4221 127.515 24.8376 127.515 26.482C127.515 28.1057 127.13 29.5108 126.359 30.6973C125.589 31.8838 124.496 32.7997 123.081 33.445C121.665 34.0695 119.979 34.3817 118.023 34.3817H111.372L113.62 32.1024V40.408H108.562ZM113.62 32.6644L111.372 30.2601H117.742C119.303 30.2601 120.468 29.9271 121.239 29.261C122.009 28.5949 122.394 27.6685 122.394 26.482C122.394 25.2747 122.009 24.338 121.239 23.6719C120.468 23.0058 119.303 22.6727 117.742 22.6727H111.372L113.62 20.2684V32.6644ZM135.778 27.3563H146.301V31.2905H135.778V27.3563ZM136.153 36.3488H148.049V40.408H131.126V18.5511H147.643V22.6102H136.153V36.3488ZM152.074 40.408V18.5511H156.258L169.154 34.288H167.124V18.5511H172.12V40.408H167.967L155.04 24.671H157.07V40.408H152.074Z" fill="#414141"/>
</svg>
